PathFileType	3	(X/Y/Z)	results
DataRate	CameraRate	NumFrames	NumMarkers	Units	OrigDataRate	OrigDataStartFrame	OrigNumFrames
30.0	30.0	4	85	mm	30.0	175	199
Frame#	Time	head			nose			neck			shoulder_r			elbow_r			wrist_r			shoulder_l			elbow_l			wrist_l			hip_r			knee_r			ankle_r			hip_l			knee_l			ankle_l			heel_r			heel_l			mtoe_r			ltoe_r			mtoe_l			ltoe_l			asis_l			asis_r			psi_r			psi_l			mhnd_r			lhnd_r			mhnd_l			lhnd_l			l_lat_knee			r_med_wrist			l_lat_ankle			r_med_ankle			r_lat_knee			xiphoid			l_med_ankle			r_med_knee			l_med_elbow			navel			r_lat_elbow			r_lat_wrist			l_med_wrist			l_lat_elbow			l_med_knee			r_med_elbow			r_lat_ankle			l_lat_wrist			chin			T10			r_eye			l_eye			l_ear			r_ear			spinal_cord_8			spinal_cord_12			spinal_cord_27			spinal_cord_33			up_arm_r_0			up_arm_r_5			up_arm_l_0			up_arm_l_5			front_torso_11			front_torso_7			front_torso_4			front_torso_1			front_torso_10			thigh_r_2			thigh_r_3			thigh_l_1			thigh_l_5			shank_l_0			shank_l_4			shank_r_1			shank_r_2			foot_r_1			foot_r_3			foot_r_5			foot_r_6			foot_r_7			foot_l_1			foot_l_7			foot_l_0			foot_l_4			foot_l_5			foot_l_6			
		X1	Y1	Z1	X2	Y2	Z2	X3	Y3	Z3	X4	Y4	Z4	X5	Y5	Z5	X6	Y6	Z6	X7	Y7	Z7	X8	Y8	Z8	X9	Y9	Z9	X10	Y10	Z10	X11	Y11	Z11	X12	Y12	Z12	X13	Y13	Z13	X14	Y14	Z14	X15	Y15	Z15	X16	Y16	Z16	X17	Y17	Z17	X18	Y18	Z18	X19	Y19	Z19	X20	Y20	Z20	X21	Y21	Z21	X22	Y22	Z22	X23	Y23	Z23	X24	Y24	Z24	X25	Y25	Z25	X26	Y26	Z26	X27	Y27	Z27	X28	Y28	Z28	X29	Y29	Z29	X30	Y30	Z30	X31	Y31	Z31	X32	Y32	Z32	X33	Y33	Z33	X34	Y34	Z34	X35	Y35	Z35	X36	Y36	Z36	X37	Y37	Z37	X38	Y38	Z38	X39	Y39	Z39	X40	Y40	Z40	X41	Y41	Z41	X42	Y42	Z42	X43	Y43	Z43	X44	Y44	Z44	X45	Y45	Z45	X46	Y46	Z46	X47	Y47	Z47	X48	Y48	Z48	X49	Y49	Z49	X50	Y50	Z50	X51	Y51	Z51	X52	Y52	Z52	X53	Y53	Z53	X54	Y54	Z54	X55	Y55	Z55	X56	Y56	Z56	X57	Y57	Z57	X58	Y58	Z58	X59	Y59	Z59	X60	Y60	Z60	X61	Y61	Z61	X62	Y62	Z62	X63	Y63	Z63	X64	Y64	Z64	X65	Y65	Z65	X66	Y66	Z66	X67	Y67	Z67	X68	Y68	Z68	X69	Y69	Z69	X70	Y70	Z70	X71	Y71	Z71	X72	Y72	Z72	X73	Y73	Z73	X74	Y74	Z74	X75	Y75	Z75	X76	Y76	Z76	X77	Y77	Z77	X78	Y78	Z78	X79	Y79	Z79	X80	Y80	Z80	X81	Y81	Z81	X82	Y82	Z82	X83	Y83	Z83	X84	Y84	Z84	X85	Y85	Z85	
175	5.833333333333333	3992.4362532293912	1680.072837369781	-503.39635327919484	4020.8082893220317	1483.201588641162	-613.8319740302887	4486.885555636785	1400.5088088033363	-517.7315691355294	4883.827636033928	1449.3959922259878	-396.9073555393077	4862.910499742507	1202.5646430363365	-277.79590311111207	4630.317034491573	1213.5558680243842	-292.74016840799874	4141.390217256509	1325.8312487297937	-636.6026250825931	3878.2063785944392	1326.0743830593547	-691.3724461692318	4083.817342166498	1226.1298978301695	-649.5890289255356	4779.903567505217	988.8955430318407	-328.43023854895716	4857.340852958985	628.1127282778596	-341.90244815588534	4567.349562593962	383.4410047048711	-321.1248750904804	4734.812086928637	951.9114681670375	-517.3724724357368	4985.677878280999	684.7647624022892	-452.5884560806337	4975.97353489025	304.5404078263554	-410.2570357377166	4525.226776559883	375.37587391769614	-323.73442519448304	4963.037361994912	232.118878931839	-411.75043953627903	4519.656991874271	175.9209292695297	-383.2790562582193	4482.4557167781995	217.15152885639787	-322.28163901435977	5152.324548144471	310.7687795606744	-359.2853219893677	5124.61757729059	284.4214968062755	-442.4357677049868	4751.875011699808	1018.2853512634144	-580.4151371098562	4815.1766865074	1068.435054821954	-302.3308841848813	4639.907429503931	1023.6777125134	-353.64437387288916	4623.800565930808	1006.8209112266558	-449.72320074068017	4561.581080955935	1192.104477444923	-278.7082651793968	4547.594187431292	1230.609889591177	-313.2153992204007	4131.983038380361	1169.8585859002822	-631.4721317664395	4169.365030816957	1207.4621463998062	-638.1284222451035	5001.012656004262	687.3448121631676	-495.94790246790274	4637.431831976101	1187.1691040639507	-282.02078675967437	4999.021668618793	284.08873546266983	-454.89691847095474	4571.1459342662965	361.975182861767	-351.62656608784386	4853.896810299629	621.1195550246794	-302.19358020300893	4634.307911343835	1280.5819674650097	-562.5170594911497	4971.914035222577	297.02358219132014	-376.7380166384868	4855.38583078238	628.2937050160253	-381.1918406384608	3880.236515899058	1340.1688473389772	-657.2603960157309	4760.252357665282	1101.295275608913	-536.5093901542215	4859.872548372629	1191.014603691989	-318.08845753475424	4639.544300096058	1244.1081824270757	-298.1634588817634	4063.1484969914186	1202.9187943338218	-658.5029272180976	3897.1894453947316	1323.3462391542398	-727.5097563580995	4978.286672811278	693.5944311332277	-408.30450896821145	4867.502501469156	1224.481807038392	-246.18424654722605	4552.431131302604	377.40025910905706	-274.2675255851209	4091.0130033245587	1255.7789139307206	-655.729299492949	4087.7508449279317	1433.4478162124947	-619.8573541679605	4516.926830975314	1250.8450736530235	-407.34430350184147	4010.3320975300853	1526.0432737003027	-634.7356814378833	3987.645672644198	1488.3469380966558	-575.4148547697778	4049.889932085236	1505.2376306309586	-471.08195162554773	4110.229413509984	1597.5436766833157	-617.4020941413967	4426.724618020272	1439.4927269671707	-489.2364205680048	4460.744736569873	1332.0204403099908	-427.0187992885187	4616.849300274135	1136.05955083623	-385.10320059750893	4529.5083043451705	1245.4312969994494	-416.13661473249243	4826.343318048855	1325.9065605060598	-349.6230958953905	4912.329666110137	1295.1441101223456	-332.8764158375389	4094.4147772876418	1326.3922701521858	-676.9763330047731	3944.8856416558906	1353.409907526121	-643.9697661529617	4755.744333456288	1144.800142606172	-479.27489474618875	4699.85680226209	1215.6075818856007	-570.7116114872513	4568.5764413674415	1281.0034657929737	-616.2182007930871	4659.069173692304	1104.0639224020206	-563.1480988102547	4649.793730554032	1401.6696491892344	-538.7205208473491	4819.832707207542	795.3991653085833	-352.43917716085406	4824.942198458221	758.7260134327362	-263.81867649444456	4894.4739542750685	757.5839869085825	-430.4176413341817	4846.321199060201	900.2469510403678	-582.4714409160822	5020.567142453861	389.61860933432814	-472.2714041948514	4961.488484644763	543.1439944795534	-393.2065492710821	4727.819504860225	534.1504091190506	-277.0408280161513	4712.130541807076	489.94424308839126	-368.73432858782706	4502.179029940524	188.51037908842997	-365.332409420609	4491.163354226116	198.49404017881184	-342.53492177056785	4534.543831734694	250.58066363658094	-367.3393018043243	4520.716816307734	254.38811812543022	-333.45920200507874	4494.420923456176	260.90600878804446	-314.2626646052429	5144.092555324504	293.8010011253889	-409.0897333129607	5047.915608684724	283.7387333111663	-446.35785143369947	5140.184064442352	291.9020866639331	-424.2041496143393	5148.36064285634	295.87842508320074	-390.64580385263844	5094.705242142555	289.2066719263299	-408.3853814595589	5059.7308285314375	287.1543869112893	-386.33130404021335	
176	5.866666666666666	4230.457911605387	1669.573426975946	-479.3538419810931	4262.5802117379135	1498.0497116177526	-625.3232231629169	4725.579971116157	1408.0494637343147	-503.55009465134304	5108.365524236907	1454.4069002880053	-335.4289687620688	5040.737695395254	1203.759491163888	-245.13426959039506	4808.970126116114	1211.8173798796954	-270.8776654293471	4399.636931401497	1338.259881153193	-670.7764196953694	4142.820693326923	1278.572919933558	-723.2017176979184	4349.325736144589	1181.666820423006	-678.7551475957953	5000.473656037896	980.1582501420073	-319.3891795433522	5006.579186906423	611.3750040202605	-333.4507499739242	4682.395089955258	417.8773723792426	-290.3897910957196	4955.296610742011	946.0593714337444	-508.8529813881708	5181.261179130484	658.7432496428762	-450.23744324547783	5220.533559560547	279.3898986958096	-418.52942372095157	4639.225819116713	416.7714609049792	-290.27425873394674	5209.211790177485	211.0425153122513	-425.09609965296016	4596.715911754983	219.47707910257446	-341.52555354556733	4572.939389852004	267.31298002949444	-278.66868669559784	5406.241019489107	260.2437464589279	-365.70960355263355	5375.8480309161705	247.65944066518875	-451.1130792338911	4984.493628230788	1007.2529367547627	-572.6800529277141	5047.276855030938	1053.7001515349252	-293.8362450405329	4868.594420094162	1036.1410456933795	-349.6920559481209	4852.665427953769	1019.6394267842048	-445.8621529577558	4740.1797386811	1187.624330888988	-262.8610107943513	4726.964886560649	1229.4135645918284	-293.6517542850562	4398.143292954595	1125.9540502438106	-660.6567999692263	4434.939432188521	1164.372386427928	-665.7384243186998	5202.4577267256645	663.3622980753864	-491.21727601818066	4816.200974591155	1184.554482093644	-262.73911315574094	5242.970550545458	262.8942841324706	-465.0770620820797	4680.517993247989	396.0704610145909	-320.8279616001835	5004.7165866983505	605.0110209084993	-293.52233758553325	4881.270708202738	1296.4157897292348	-541.2310659175187	5219.584041974821	270.7109561282659	-385.0588214135897	5002.071375479069	611.7982018258494	-372.5245387872998	4141.695380825361	1294.206544137881	-689.724399817121	5009.113409491354	1118.1738503005718	-517.3946430274093	5040.588079202502	1196.4135300778257	-286.5122464631326	4817.689393684591	1242.9539401541037	-272.45481881658105	4329.305552969559	1158.2562301228159	-688.5811639093681	4161.960704633929	1278.5321480030004	-759.3591939208965	5173.003183451263	663.5720596234149	-405.37277500565335	5044.797022385944	1221.8602784778936	-211.12502450233978	4669.919607775073	414.39304073789083	-242.56842369995488	4356.088710141742	1211.5608580550395	-684.1545285456652	4330.292750213425	1451.2603086170445	-640.1155430545257	4747.107389291204	1248.7502593713282	-405.32894614845304	4251.636593941924	1543.9765491215298	-637.6961121944856	4229.048837285186	1495.2675653992649	-586.982443202849	4290.227596760191	1492.5472914914014	-480.705646557859	4350.333041549603	1612.0864979200824	-605.8797528872186	4661.147575448909	1442.676736009012	-479.0454790538451	4691.011323097716	1330.262871314316	-423.8189196471567	4847.4197849315415	1134.4876539724328	-382.16943264207265	4760.831631709551	1244.5172735024607	-412.986242490126	5029.599202183181	1337.0401394388762	-306.9544586046483	5108.171164315384	1292.5616699781485	-285.3085763030808	4353.701883087731	1326.8107632809606	-710.7255377463367	4201.867310007899	1321.8273166299803	-677.5626629533822	4996.280541298881	1155.6123958010626	-457.20780057748135	4949.474897806876	1234.015028692678	-547.5407495033282	4822.514575401715	1300.807618939036	-602.3297162928677	4911.843370498546	1121.4242715924315	-555.9082406079892	4889.698674205738	1414.811252251173	-504.08545572395093	5001.066671977926	782.6068577138418	-343.56994058279827	5005.222514334285	745.6000200803948	-255.0383470672878	5095.291931662994	734.7049694057072	-427.94036573210434	5068.486733955382	892.8100261378208	-569.6303073247726	5250.381507851465	370.62234118972765	-480.64555304274927	5178.318394096853	513.9771997669286	-393.65201802472944	4868.099200562482	540.0756051923926	-258.94292547783755	4839.131157749785	499.0348013656015	-348.8569490823556	4583.373408571953	235.0319817408455	-322.3923848184907	4576.4869447788415	247.09870492544206	-298.9890762622442	4624.538155129187	291.1811118318538	-329.9400378978269	4615.100695203464	297.823857205935	-295.00649367806	4592.289514596544	308.79772200342063	-273.5195614070552	5396.205411638229	250.56881341021864	-417.10836660849833	5299.596307658906	256.34125790381864	-454.16948963058445	5392.137159565888	250.99982041800817	-432.29360006980255	5400.643969142533	249.86450345114102	-398.6012341947565	5346.617432879814	251.6681430013825	-416.37726281312007	5311.591349325133	250.9915854910303	-394.32007457892394	
177	5.9	4454.579354544186	1695.6285412220543	-480.1375222429993	4461.213342948643	1525.2217240652128	-630.7256831422266	4920.633301865268	1404.6256513101803	-513.4605147191504	5240.787995311383	1460.7955836517115	-306.4544681338832	5245.693520803775	1199.8858750509767	-220.1246389292866	5018.289022103157	1192.9405714196844	-271.92053546200907	4921.664678134901	1345.3211061142104	-642.737911534068	4692.082935913996	1216.4426018005172	-697.0341371279895	4864.988017819019	1066.1594222026554	-657.9263245237008	5170.114188554177	974.9937660587174	-306.9364837941375	5173.89522383049	606.8729017696412	-343.64933316054936	4851.487600687144	444.50313391810835	-224.98892960008249	5131.747270161357	929.2386314771591	-495.4429250442502	5342.091669450109	629.9381188253769	-451.353292133064	5461.887827847138	267.9810890160954	-418.2976988614788	4800.996888100803	443.5229507024241	-209.6916156416102	5452.141082826009	209.18331033768428	-425.93800833754347	4808.7068591638945	235.54917330441913	-216.49784775453563	4828.082972914046	290.3618215063419	-157.97672392287006	5656.012584710649	203.76992021539604	-369.5896259717735	5622.1216408284645	200.60226951312595	-454.54386116312344	5166.428536888386	984.3922105485201	-561.9734126576705	5219.027682605225	1048.1627700320787	-284.44937381002495	5042.34000517107	1034.1180558105286	-347.2173354655761	5029.890360870119	1011.4037885056224	-442.6311300324836	4950.8417039622245	1164.0867751513113	-271.99463648670627	4938.361524840514	1205.4295355435488	-303.68159826890434	4897.390266816816	998.142260993138	-646.1629558891015	4942.590876683395	1026.532339168151	-643.5831007355285	5370.06300213593	638.6033280174763	-488.09425714560615	5026.397584993144	1166.082926752575	-263.2773341299606	5478.2746470398315	253.23336855846924	-467.8575959490161	4834.925456260995	432.7078464300466	-256.486765463113	5181.198765030231	599.1021318309613	-304.6668897838022	5071.821749789962	1285.2345980384623	-545.231067040273	5468.84318415548	261.39336724762893	-385.0601931325707	5159.937556496949	610.2587037584186	-380.28370455707636	4685.911916586678	1232.2074463674123	-664.1738945433156	5191.113709263571	1102.217994527203	-514.3041928948466	5249.863516473245	1193.513320038975	-261.45409789138165	5024.989641575674	1224.6111130022014	-272.1978800383367	4840.851310280018	1050.0106804308282	-672.1408085988725	4711.424917243367	1220.4920235507782	-732.855844565528	5332.216413262664	629.6869565305645	-406.0879982157798	5242.4553404217095	1217.8092648382656	-185.93382620408607	4855.625430365971	428.7351531510786	-178.20313527856476	4879.124133988646	1093.8811327567146	-658.3970701760056	4523.011865296063	1472.3927252311498	-650.2983259275545	4933.250755603676	1247.2394792851348	-410.71104769545985	4454.181495733197	1572.2732866104802	-641.6265612416271	4429.807661970948	1524.8416152834538	-590.5305648085559	4496.365205791463	1513.6864335884266	-488.10667458715176	4560.782727017551	1629.6508029657437	-614.4929525460082	4857.386981987967	1442.7194073514952	-491.1037136324382	4881.1980500762675	1330.6259274504912	-432.3944463630624	5027.9194218053	1129.3162920408224	-382.6602308223593	4946.9065891424625	1242.1980898334225	-417.99182988866875	5198.870944547211	1324.9533944687437	-282.3765059276291	5285.848944555106	1305.290236756061	-256.5188292555154	4881.584340835848	1320.5810154164685	-682.968962613452	4736.006679253612	1275.5151645157473	-652.0729739056366	5178.894585749776	1141.798924196682	-455.3735028735634	5137.267266057681	1219.7289592755533	-548.6036410078374	5014.423160027964	1290.5714278594019	-607.5330455323293	5094.790946491082	1108.7291249756781	-554.7375142399094	5084.873482690326	1404.1006545888504	-511.0429787368678	5165.420311609922	779.1406241925649	-342.0239154905145	5190.470264614638	737.306202961516	-259.27730732776604	5258.616826769485	705.4454407877136	-427.3477863352392	5249.309346185442	879.8677378703783	-550.9681739035008	5460.918699288836	359.18393109690805	-487.24532020352075	5378.694246642316	491.14288913685596	-391.6547570886277	5057.624224620954	532.1680863502685	-240.15067569028727	4991.99532625522	522.046831057057	-318.88081359497363	4811.056531845293	251.63263889237052	-193.65366456087577	4821.329670795865	267.17089067085055	-173.8100411231771	4806.925690549441	312.4289029410121	-228.16422329324837	4826.71750755918	325.21935175611696	-199.91121236927546	4827.551740368621	335.2576660220554	-168.27262469517686	5643.018130222521	197.64943690114427	-420.87153735056756	5550.865406510366	229.21480890893056	-456.2504820665811	5638.987574939036	199.3051654458477	-435.98249179865604	5647.381935567152	195.5966254248063	-402.4472608824391	5595.513060702397	211.84396475535706	-419.29216262027114	5561.888799416435	220.23942133467446	-396.6486387372434	
178	5.933333333333334	4709.100587311009	1716.444420443166	-449.25912111275915	4680.369363905463	1587.752942358168	-634.6568223083411	5115.163959302317	1398.6052430055809	-516.975496067019	5373.903702283264	1474.0684882358341	-275.58501634077817	5367.171063116936	1207.1901307068065	-210.15265824911128	5164.457129655726	1162.549026970214	-316.72700416453915	5236.143269543879	1427.4701554336602	-633.3319610746809	5169.884651826902	1173.1633992185803	-689.9305005493533	5158.620241527662	943.3201681303054	-657.4370456879492	5294.775018323859	953.600138096715	-299.5102434709128	5316.221721847759	585.7832024892077	-344.2355704891607	4993.499253237151	462.770031750507	-185.77776403923585	5277.693094955233	892.0358664003251	-486.6419604641622	5490.278957367817	593.3752004906547	-457.31636585476986	5661.6965493088055	253.7262066595155	-415.94906712464496	4935.467795548055	457.05361928520324	-167.6577661858424	5653.26558696068	205.34837869414574	-424.76220439958047	5039.592143148172	282.0163916924981	-124.3109124583443	5034.598203647069	355.0232448183919	-86.23674685486468	5849.302649563078	152.06316328998852	-365.61670436694766	5818.110317568474	161.57288044614072	-451.12960321555715	5324.861395167657	937.9790609088595	-552.4856212195709	5345.890319884545	1025.3016963159769	-277.1939791450175	5178.257661263932	1016.6267591977007	-361.92675671552655	5176.536304994937	985.4549357542811	-455.7354883554033	5105.799587081801	1122.0257092518377	-334.01402804797567	5093.597111050773	1162.3871696085923	-367.04574540158524	5149.88188808331	870.134782575334	-676.9858901807054	5158.301837698457	861.19543323751	-624.9768543734327	5519.25459018678	604.076099815415	-493.31185502306903	5175.245736784115	1137.1016074977624	-306.836524050092	5678.159951563306	239.317216085608	-465.58316707745047	4976.686766840006	443.2231907186705	-212.9955597948623	5327.683695978033	579.0402348685489	-306.1763820682493	5257.747355648088	1266.7942418710963	-537.4052158014491	5670.757579501247	249.62589388290607	-382.81914087148925	5298.519747055235	590.0599263753293	-379.1314452527038	5139.3107075312655	1192.3417002888168	-697.9201216133827	5353.988595112992	1070.8196757327612	-505.56634720647577	5382.806232744794	1204.3202090506288	-249.05545403244028	5164.839136577786	1194.85982314071	-314.7610573189727	5166.607261589795	948.5794123653077	-688.3233198200517	5210.7780058251055	1174.2729006482687	-689.4751025332642	5482.482811531576	591.5592341319003	-411.2871219147314	5353.8469370696	1222.1749454797202	-177.00649135518825	4997.80499859311	459.8426186065624	-136.50756806408205	5163.5867726943825	954.6837863236013	-628.8932833641	4732.131206872989	1533.513448954472	-671.6951510456332	5098.268829142763	1234.086754534997	-426.77969912815536	4679.820521849957	1636.549334428847	-633.7986557550174	4651.896543537639	1581.8753782781398	-592.7418898975252	4722.4198317641885	1537.8538801267007	-502.5555742816127	4795.358562180234	1671.2417271313222	-604.822221528175	5053.116785987558	1441.3639232270853	-500.4557705380899	5057.783348031668	1323.6614849490672	-448.4648820553247	5176.645967470659	1105.431318535401	-395.8009039162146	5112.313254918622	1228.1819367227831	-432.5063401871691	5333.403800913059	1335.6973326529119	-273.83314236027326	5410.781622664295	1316.1956577537173	-226.36958711367794	5251.7209875314265	1369.5238304238103	-648.7138048147435	5154.905928597392	1257.8194509411917	-696.9561571142941	5337.056736624723	1107.3139581384846	-445.81467175586806	5316.695986205966	1195.306706512901	-537.1410033617058	5210.705262834263	1282.2469037652393	-606.346300267168	5265.541275149432	1089.9320633488396	-558.1696850636115	5276.575228330271	1381.0711554992488	-492.07740165526207	5297.9720089296625	758.3691728480994	-338.06232489097715	5333.366520326291	716.8463105105899	-259.0199275715072	5407.809379740238	667.2381479892977	-428.74582294490403	5395.123546154463	846.1985108730958	-545.3821178092221	5645.1369297905485	340.81994142529203	-488.15109250111846	5548.5340821038135	463.8435577165522	-394.105025969523	5200.081741215353	541.8203750583197	-224.27515407958174	5133.946979647578	511.8203305915442	-297.3108807362402	5035.5504637040685	303.7707644150579	-107.09267713839735	5038.549748683984	327.5360085484482	-94.17131868597475	5001.141775523353	342.76318062337316	-153.9953624775554	5014.346377728449	370.9126388797088	-134.3283670743702	5012.370972414611	389.63188380622717	-106.97600756150933	5836.841787838338	152.0733088360798	-417.3938945210237	5754.852159998711	205.12201680693317	-452.0883095776315	5833.724527447384	155.48928146491556	-432.4252476169102	5840.098044855164	147.99554341380994	-399.07779737074185	5793.527061914556	176.18734287303238	-415.64502166486267	5761.860971067171	190.3332494496247	-393.0406895664687	
